<mxfile host="app.diagrams.net" modified="2022-12-04T15:44:23.837Z" agent="5.0 (Windows NT 10.0; Win64; x64) AppleWebKit/537.36 (KHTML, like Gecko) Chrome/106.0.0.0 YaBrowser/22.11.0.2500 Yowser/2.5 Safari/537.36" etag="pVYMFLTjvNMhXrtT9n2-" version="20.6.0" type="github">
  <diagram id="C5RBs43oDa-KdzZeNtuy" name="Page-1">
    <mxGraphModel dx="2790" dy="1141" grid="1" gridSize="10" guides="1" tooltips="1" connect="1" arrows="1" fold="1" page="1" pageScale="1" pageWidth="827" pageHeight="1169" math="0" shadow="0">
      <root>
        <mxCell id="WIyWlLk6GJQsqaUBKTNV-0" />
        <mxCell id="WIyWlLk6GJQsqaUBKTNV-1" parent="WIyWlLk6GJQsqaUBKTNV-0" />
        <mxCell id="-FOR1K5Nx7FBaRVTVXJk-2" value="" style="edgeStyle=orthogonalEdgeStyle;rounded=0;orthogonalLoop=1;jettySize=auto;html=1;" edge="1" parent="WIyWlLk6GJQsqaUBKTNV-1" source="-FOR1K5Nx7FBaRVTVXJk-0" target="-FOR1K5Nx7FBaRVTVXJk-1">
          <mxGeometry relative="1" as="geometry" />
        </mxCell>
        <mxCell id="-FOR1K5Nx7FBaRVTVXJk-0" value="&lt;font style=&quot;font-size: 14px;&quot;&gt;НАЧАЛО&lt;/font&gt;" style="strokeWidth=2;html=1;shape=mxgraph.flowchart.terminator;whiteSpace=wrap;" vertex="1" parent="WIyWlLk6GJQsqaUBKTNV-1">
          <mxGeometry x="-130" y="30" width="140" height="60" as="geometry" />
        </mxCell>
        <mxCell id="-FOR1K5Nx7FBaRVTVXJk-15" value="" style="edgeStyle=orthogonalEdgeStyle;rounded=0;orthogonalLoop=1;jettySize=auto;html=1;" edge="1" parent="WIyWlLk6GJQsqaUBKTNV-1" source="-FOR1K5Nx7FBaRVTVXJk-1" target="-FOR1K5Nx7FBaRVTVXJk-3">
          <mxGeometry relative="1" as="geometry" />
        </mxCell>
        <mxCell id="-FOR1K5Nx7FBaRVTVXJk-1" value="&lt;font style=&quot;font-size: 14px;&quot;&gt;gl_pos=0&lt;/font&gt;" style="whiteSpace=wrap;html=1;strokeWidth=2;" vertex="1" parent="WIyWlLk6GJQsqaUBKTNV-1">
          <mxGeometry x="-130" y="110" width="140" height="60" as="geometry" />
        </mxCell>
        <mxCell id="-FOR1K5Nx7FBaRVTVXJk-5" value="" style="edgeStyle=orthogonalEdgeStyle;rounded=0;orthogonalLoop=1;jettySize=auto;html=1;" edge="1" parent="WIyWlLk6GJQsqaUBKTNV-1" source="-FOR1K5Nx7FBaRVTVXJk-3" target="-FOR1K5Nx7FBaRVTVXJk-4">
          <mxGeometry relative="1" as="geometry" />
        </mxCell>
        <mxCell id="-FOR1K5Nx7FBaRVTVXJk-24" style="edgeStyle=orthogonalEdgeStyle;rounded=0;orthogonalLoop=1;jettySize=auto;html=1;exitX=1;exitY=0.5;exitDx=0;exitDy=0;entryX=0.5;entryY=0;entryDx=0;entryDy=0;entryPerimeter=0;" edge="1" parent="WIyWlLk6GJQsqaUBKTNV-1" source="-FOR1K5Nx7FBaRVTVXJk-3" target="-FOR1K5Nx7FBaRVTVXJk-14">
          <mxGeometry relative="1" as="geometry">
            <mxPoint x="30" y="910" as="targetPoint" />
            <Array as="points">
              <mxPoint x="30" y="240" />
              <mxPoint x="30" y="920" />
              <mxPoint x="-60" y="920" />
            </Array>
          </mxGeometry>
        </mxCell>
        <mxCell id="-FOR1K5Nx7FBaRVTVXJk-3" value="&lt;font style=&quot;font-size: 14px;&quot;&gt;gl_key!=9999&lt;/font&gt;" style="rhombus;whiteSpace=wrap;html=1;" vertex="1" parent="WIyWlLk6GJQsqaUBKTNV-1">
          <mxGeometry x="-130" y="200" width="140" height="80" as="geometry" />
        </mxCell>
        <mxCell id="-FOR1K5Nx7FBaRVTVXJk-7" value="" style="edgeStyle=orthogonalEdgeStyle;rounded=0;orthogonalLoop=1;jettySize=auto;html=1;" edge="1" parent="WIyWlLk6GJQsqaUBKTNV-1" source="-FOR1K5Nx7FBaRVTVXJk-4" target="-FOR1K5Nx7FBaRVTVXJk-6">
          <mxGeometry relative="1" as="geometry" />
        </mxCell>
        <mxCell id="-FOR1K5Nx7FBaRVTVXJk-4" value="&lt;font style=&quot;font-size: 14px;&quot;&gt;очистка консоли&lt;/font&gt;" style="whiteSpace=wrap;html=1;" vertex="1" parent="WIyWlLk6GJQsqaUBKTNV-1">
          <mxGeometry x="-130" y="300" width="140" height="60" as="geometry" />
        </mxCell>
        <mxCell id="-FOR1K5Nx7FBaRVTVXJk-9" value="" style="edgeStyle=orthogonalEdgeStyle;rounded=0;orthogonalLoop=1;jettySize=auto;html=1;" edge="1" parent="WIyWlLk6GJQsqaUBKTNV-1" source="-FOR1K5Nx7FBaRVTVXJk-6" target="-FOR1K5Nx7FBaRVTVXJk-8">
          <mxGeometry relative="1" as="geometry" />
        </mxCell>
        <mxCell id="-FOR1K5Nx7FBaRVTVXJk-6" value="&lt;font style=&quot;font-size: 14px;&quot;&gt;func_menu()&lt;/font&gt;" style="whiteSpace=wrap;html=1;" vertex="1" parent="WIyWlLk6GJQsqaUBKTNV-1">
          <mxGeometry x="-130" y="390" width="140" height="60" as="geometry" />
        </mxCell>
        <mxCell id="-FOR1K5Nx7FBaRVTVXJk-16" value="" style="edgeStyle=orthogonalEdgeStyle;rounded=0;orthogonalLoop=1;jettySize=auto;html=1;" edge="1" parent="WIyWlLk6GJQsqaUBKTNV-1" source="-FOR1K5Nx7FBaRVTVXJk-8" target="-FOR1K5Nx7FBaRVTVXJk-10">
          <mxGeometry relative="1" as="geometry" />
        </mxCell>
        <mxCell id="-FOR1K5Nx7FBaRVTVXJk-8" value="&lt;font style=&quot;font-size: 14px;&quot;&gt;enter()&lt;/font&gt;" style="whiteSpace=wrap;html=1;" vertex="1" parent="WIyWlLk6GJQsqaUBKTNV-1">
          <mxGeometry x="-130" y="480" width="140" height="60" as="geometry" />
        </mxCell>
        <mxCell id="-FOR1K5Nx7FBaRVTVXJk-17" value="" style="edgeStyle=orthogonalEdgeStyle;rounded=0;orthogonalLoop=1;jettySize=auto;html=1;" edge="1" parent="WIyWlLk6GJQsqaUBKTNV-1" source="-FOR1K5Nx7FBaRVTVXJk-10" target="-FOR1K5Nx7FBaRVTVXJk-11">
          <mxGeometry relative="1" as="geometry" />
        </mxCell>
        <mxCell id="-FOR1K5Nx7FBaRVTVXJk-10" value="&lt;font style=&quot;font-size: 14px;&quot;&gt;gl_key==13&lt;/font&gt;" style="strokeWidth=2;html=1;shape=mxgraph.flowchart.decision;whiteSpace=wrap;" vertex="1" parent="WIyWlLk6GJQsqaUBKTNV-1">
          <mxGeometry x="-130" y="570" width="140" height="100" as="geometry" />
        </mxCell>
        <mxCell id="-FOR1K5Nx7FBaRVTVXJk-18" value="" style="edgeStyle=orthogonalEdgeStyle;rounded=0;orthogonalLoop=1;jettySize=auto;html=1;" edge="1" parent="WIyWlLk6GJQsqaUBKTNV-1" source="-FOR1K5Nx7FBaRVTVXJk-11" target="-FOR1K5Nx7FBaRVTVXJk-13">
          <mxGeometry relative="1" as="geometry" />
        </mxCell>
        <mxCell id="-FOR1K5Nx7FBaRVTVXJk-19" value="" style="edgeStyle=orthogonalEdgeStyle;rounded=0;orthogonalLoop=1;jettySize=auto;html=1;" edge="1" parent="WIyWlLk6GJQsqaUBKTNV-1" source="-FOR1K5Nx7FBaRVTVXJk-11" target="-FOR1K5Nx7FBaRVTVXJk-12">
          <mxGeometry relative="1" as="geometry" />
        </mxCell>
        <mxCell id="-FOR1K5Nx7FBaRVTVXJk-11" value="&lt;font style=&quot;font-size: 14px;&quot;&gt;gl_pos=1&lt;/font&gt;" style="strokeWidth=2;html=1;shape=mxgraph.flowchart.decision;whiteSpace=wrap;" vertex="1" parent="WIyWlLk6GJQsqaUBKTNV-1">
          <mxGeometry x="-130" y="700" width="140" height="100" as="geometry" />
        </mxCell>
        <mxCell id="-FOR1K5Nx7FBaRVTVXJk-20" value="" style="edgeStyle=orthogonalEdgeStyle;rounded=0;orthogonalLoop=1;jettySize=auto;html=1;" edge="1" parent="WIyWlLk6GJQsqaUBKTNV-1" source="-FOR1K5Nx7FBaRVTVXJk-12" target="-FOR1K5Nx7FBaRVTVXJk-14">
          <mxGeometry relative="1" as="geometry" />
        </mxCell>
        <mxCell id="-FOR1K5Nx7FBaRVTVXJk-12" value="&lt;font style=&quot;font-size: 14px;&quot;&gt;return 0&lt;/font&gt;" style="rounded=0;whiteSpace=wrap;html=1;" vertex="1" parent="WIyWlLk6GJQsqaUBKTNV-1">
          <mxGeometry x="-130" y="840" width="140" height="60" as="geometry" />
        </mxCell>
        <mxCell id="-FOR1K5Nx7FBaRVTVXJk-22" style="edgeStyle=orthogonalEdgeStyle;rounded=0;orthogonalLoop=1;jettySize=auto;html=1;exitX=1;exitY=0.5;exitDx=0;exitDy=0;" edge="1" parent="WIyWlLk6GJQsqaUBKTNV-1" source="-FOR1K5Nx7FBaRVTVXJk-13">
          <mxGeometry relative="1" as="geometry">
            <mxPoint x="-60" y="180" as="targetPoint" />
            <Array as="points">
              <mxPoint x="220" y="750" />
              <mxPoint x="220" y="180" />
            </Array>
          </mxGeometry>
        </mxCell>
        <mxCell id="-FOR1K5Nx7FBaRVTVXJk-13" value="&lt;font style=&quot;font-size: 14px;&quot;&gt;func_calc()&lt;/font&gt;" style="rounded=0;whiteSpace=wrap;html=1;" vertex="1" parent="WIyWlLk6GJQsqaUBKTNV-1">
          <mxGeometry x="60" y="720" width="140" height="60" as="geometry" />
        </mxCell>
        <mxCell id="-FOR1K5Nx7FBaRVTVXJk-14" value="&lt;font style=&quot;font-size: 14px;&quot;&gt;КОНЕЦ&lt;/font&gt;" style="strokeWidth=2;html=1;shape=mxgraph.flowchart.terminator;whiteSpace=wrap;" vertex="1" parent="WIyWlLk6GJQsqaUBKTNV-1">
          <mxGeometry x="-130" y="950" width="140" height="60" as="geometry" />
        </mxCell>
      </root>
    </mxGraphModel>
  </diagram>
</mxfile>
